<svg width="215" height="62" viewBox="0 0 215 62" fill="none" xmlns="http://www.w3.org/2000/svg">
<rect width="215" height="62" fill="#C99E71"/>
<path d="M41.7784 38C45.767 38 48.1832 35.5327 48.1832 31.4418C48.1832 27.3636 45.767 24.9091 41.8168 24.9091H37.1378V38H41.7784ZM39.9055 35.6286V27.2805H41.6697C44.1243 27.2805 45.4219 28.5334 45.4219 31.4418C45.4219 34.3629 44.1243 35.6286 41.6634 35.6286H39.9055ZM53.0012 24.9091H50.2335V38H53.0012V24.9091ZM62.38 28.674H65.0327C64.9943 26.3409 63.0767 24.7301 60.1619 24.7301C57.2919 24.7301 55.1889 26.3153 55.2017 28.6932C55.1953 30.6236 56.5568 31.7294 58.7685 32.2599L60.1939 32.6179C61.6193 32.9631 62.4119 33.3722 62.4183 34.2543C62.4119 35.2131 61.5043 35.8651 60.098 35.8651C58.6598 35.8651 57.6243 35.2003 57.5348 33.8899H54.8565C54.9268 36.7216 56.9531 38.1854 60.13 38.1854C63.326 38.1854 65.2053 36.6577 65.2116 34.2607C65.2053 32.081 63.5625 30.924 61.2869 30.4126L60.1108 30.1314C58.973 29.8693 58.0206 29.4474 58.0398 28.5078C58.0398 27.6641 58.7876 27.044 60.1428 27.044C61.4659 27.044 62.2777 27.6449 62.38 28.674ZM78.6238 29.4922C78.2594 26.4688 75.9711 24.7301 72.9412 24.7301C69.4831 24.7301 66.8432 27.1719 66.8432 31.4545C66.8432 35.7244 69.4384 38.179 72.9412 38.179C76.2971 38.179 78.3233 35.9482 78.6238 33.5384L75.824 33.5256C75.562 34.9254 74.4625 35.7308 72.986 35.7308C70.998 35.7308 69.6493 34.2543 69.6493 31.4545C69.6493 28.7315 70.9789 27.1783 73.0051 27.1783C74.5201 27.1783 75.6131 28.054 75.824 29.4922H78.6238ZM92.6383 31.4545C92.6383 27.1719 89.9792 24.7301 86.5083 24.7301C83.0183 24.7301 80.3784 27.1719 80.3784 31.4545C80.3784 35.718 83.0183 38.179 86.5083 38.179C89.9792 38.179 92.6383 35.7372 92.6383 31.4545ZM89.8322 31.4545C89.8322 34.2287 88.5154 35.7308 86.5083 35.7308C84.4949 35.7308 83.1845 34.2287 83.1845 31.4545C83.1845 28.6804 84.4949 27.1783 86.5083 27.1783C88.5154 27.1783 89.8322 28.6804 89.8322 31.4545ZM96.3153 24.9091H93.2408L97.7599 38H101.327L105.839 24.9091H102.771L99.6009 34.8551H99.4794L96.3153 24.9091ZM107.415 38H116.262V35.718H110.183V32.5923H115.782V30.3104H110.183V27.1911H116.236V24.9091H107.415V38ZM118.437 38H121.204V33.3594H123.224L125.704 38H128.76L125.979 32.9119C127.469 32.2727 128.293 30.9751 128.293 29.1854C128.293 26.5838 126.574 24.9091 123.601 24.9091H118.437V38ZM121.204 31.1349V27.1719H123.071C124.669 27.1719 125.442 27.8814 125.442 29.1854C125.442 30.483 124.669 31.1349 123.084 31.1349H121.204ZM145.365 24.9091H142.61V33.142H142.495L136.844 24.9091H134.415V38H137.183V29.7607H137.279L142.974 38H145.365V24.9091ZM159.681 31.4545C159.681 27.1719 157.022 24.7301 153.551 24.7301C150.061 24.7301 147.421 27.1719 147.421 31.4545C147.421 35.718 150.061 38.179 153.551 38.179C157.022 38.179 159.681 35.7372 159.681 31.4545ZM156.875 31.4545C156.875 34.2287 155.558 35.7308 153.551 35.7308C151.538 35.7308 150.227 34.2287 150.227 31.4545C150.227 28.6804 151.538 27.1783 153.551 27.1783C155.558 27.1783 156.875 28.6804 156.875 31.4545ZM164.186 38H166.884L169.37 29.4411H169.472L171.965 38H174.663L178.408 24.9091H175.385L173.218 34.0241H173.103L170.719 24.9091H168.13L165.739 34.005H165.631L163.464 24.9091H160.44L164.186 38Z" fill="white"/>
</svg>
